# xmcd CD database file
#
# Track frame offsets:
#	150
#	12322
#	16525
#	36095
#	43088
#	59144
#	77979
#	88399
#	99711
#	115690
#	137071
#	152270
#	181819
#	188927
#	208079
#	235441
#
# Disc length: 3475 seconds
#
# Revision: 0
# Processed by: cddbd v1.5.1PL2 Copyright (c) Steve Scherf et al.
# Submitted via: CDex 1.51
#
DISCID=d60d9110
DTITLE=Jacy Desmond - Between Cradle and Grave
DYEAR=2003
DGENRE=Jazz
TTITLE0=Enfant devant sa maison détruite
TTITLE1=Solitude
TTITLE2=Retrouvailles
TTITLE3=La balade du retour au bled 1
TTITLE4=La balade du retour au bled 2
TTITLE5=Révolte
TTITLE6=Valse pour soldats boiteux
TTITLE7=Gone
TTITLE8=Te Moana Sous la Luna
TTITLE9=Why
TTITLE10=Because
TTITLE11=Dried Leaves in an empty shool yard
TTITLE12=Crépuscule
TTITLE13=Jouis
TTITLE14=Rêve
TTITLE15=Cry
EXTD=YEAR: 2003
EXTT0=
EXTT1=
EXTT2=
EXTT3=
EXTT4=
EXTT5=
EXTT6=
EXTT7=
EXTT8=
EXTT9=
EXTT10=
EXTT11=
EXTT12=
EXTT13=
EXTT14=
EXTT15=
PLAYORDER=
